<mxfile host="app.diagrams.net" modified="2025-05-13T14:44:03.509Z" agent="Mozilla/5.0 (Windows NT 10.0; Win64; x64) AppleWebKit/537.36 (KHTML, like Gecko) Chrome/133.0.0.0 Safari/537.36 OPR/118.0.0.0" version="24.0.0" etag="zigc_OJQa44Jh3lfzIPB" type="github">
  <diagram name="PÃ¡gina-1" id="g1WXzR5il2M1c-6KBHKB">
    <mxGraphModel>
      <root>
        <mxCell id="0" />
        <mxCell id="1" parent="0" />
      </root>
    </mxGraphModel>
  </diagram>
</mxfile>
